# File created by Blade
# Date/Time:  Wed Jan 21 17:05:57 2015
# Frame Rate: 120.000 fps
#------------------------------------------------------
:FULLY-SPECIFIED
:DEGREES
237
root 19.533875 9.909143 -12.699702 -175.999936 4.077806 -178.575055
Spine 73.723636 4.956890 -0.241837
Head -16.101843 -0.596744 2.418797
LeftShoulder 17.371169 -59.845929 26.607263
LeftArm 53.502193 1.720965 -14.086104
LeftForeArm -3.234853 -0.000000 0.106782
LeftHand -5.148609 -0.000000 21.712769
LeftHandThumb1 -26.253704 0.000000 33.147579
RightShoulder 8.184196 27.353488 -37.164485
RightArm 55.602555 39.213974 25.043161
RightForeArm -21.781819 -0.000000 9.766882
RightHand -11.229258 -0.000000 -26.880487
RightHandThumb1 -24.326973 -0.000000 -32.862282
LeftUpLeg -121.887833 28.709874 -9.866084
LeftLeg 143.435096 -0.000000 -0.000000
LeftFoot -47.619183 19.661023 -11.212672
LeftToeBase 26.068518 -0.000000 -0.000000
RightUpLeg -120.685765 -18.987524 13.100378
RightLeg 141.384814 -0.000000 -0.000000
RightFoot -47.658927 -24.621221 14.177502
RightToeBase 24.753844 -0.000000 -0.000000
238
root 19.523914 9.805009 -12.719407 -176.397120 4.075857 -178.580190
Spine 74.220428 4.857244 -0.098153
Head -15.828042 -0.618047 2.212694
LeftShoulder 17.502195 -59.870957 26.633460
LeftArm 53.429342 1.821639 -13.864060
LeftForeArm -3.219032 -0.000000 0.154571
LeftHand -5.263600 -0.000000 21.544535
LeftHandThumb1 -26.253704 0.000000 33.147579
RightShoulder 8.339584 27.471329 -37.371060
RightArm 55.370277 39.126534 24.756938
RightForeArm -21.844312 -0.000000 9.861824
RightHand -11.273658 -0.000000 -26.709050
RightHandThumb1 -24.326973 -0.000000 -32.862282
LeftUpLeg -121.924453 28.706607 -9.723066
LeftLeg 143.767853 -0.000000 -0.000000
LeftFoot -47.502015 19.739156 -11.193831
LeftToeBase 25.856372 -0.000000 -0.000000
RightUpLeg -120.734248 -19.051968 12.953165
RightLeg 141.698659 -0.000000 -0.000000
RightFoot -47.536491 -24.658567 14.115656
RightToeBase 24.855088 -0.000000 -0.000000
239
root 19.515053 9.705046 -12.739752 -176.809672 4.081552 -178.602287
Spine 74.725474 4.762807 -0.004551
Head -15.565937 -0.603403 2.033420
LeftShoulder 17.579028 -59.793865 26.719373
LeftArm 53.373261 1.832205 -13.588551
LeftForeArm -3.394500 -0.000000 0.186270
LeftHand -5.403802 -0.000000 21.310477
LeftHandThumb1 -26.253704 0.000000 33.147579
RightShoulder 8.495941 27.415956 -37.569298
RightArm 55.272806 39.168828 24.485156
RightForeArm -21.805774 -0.000000 9.861255
RightHand -11.279163 -0.000000 -26.636159
RightHandThumb1 -24.326973 -0.000000 -32.862282
LeftUpLeg -121.941666 28.727964 -9.599025
LeftLeg 144.100742 -0.000000 -0.000000
LeftFoot -47.295039 19.870592 -11.069376
LeftToeBase 25.722561 -0.000000 -0.000000
RightUpLeg -120.736963 -19.099265 12.759611
RightLeg 142.000357 -0.000000 -0.000000
RightFoot -47.502961 -24.698748 14.088670
RightToeBase 25.211442 -0.000000 -0.000000
240
root 19.505048 9.613326 -12.759174 -177.192623 4.085554 -178.627708
Spine 75.199992 4.673572 0.094669
Head -15.298156 -0.554813 1.868871
LeftShoulder 17.698169 -59.841136 26.739557
LeftArm 53.310113 1.973820 -13.312922
LeftForeArm -3.430251 0.000000 0.163139
LeftHand -5.220134 -0.000000 21.100946
LeftHandThumb1 -26.253704 0.000000 33.147579
RightShoulder 8.628287 27.548422 -37.758923
RightArm 55.162290 39.112372 24.372611
RightForeArm -21.806451 0.000000 9.911432
RightHand -11.192279 -0.000000 -26.793250
RightHandThumb1 -24.326973 -0.000000 -32.862282
LeftUpLeg -121.943071 28.732807 -9.486469
LeftLeg 144.404212 -0.000000 -0.000000
LeftFoot -47.148473 19.957655 -11.017933
LeftToeBase 25.561119 -0.000000 -0.000000
RightUpLeg -120.736258 -19.149563 12.565748
RightLeg 142.281068 -0.000000 -0.000000
RightFoot -47.360462 -24.728174 14.018541
RightToeBase 25.131921 -0.000000 -0.000000
241
root 19.497886 9.529074 -12.778029 -177.563540 4.094692 -178.650327
Spine 75.667219 4.610673 0.186577
Head -15.068117 -0.495339 1.765100
LeftShoulder 17.857166 -59.999140 26.733547
LeftArm 53.226609 2.081283 -13.248859
LeftForeArm -3.418989 0.000000 0.176527
LeftHand -5.350333 -0.000000 20.933493
LeftHandThumb1 -26.253704 0.000000 33.147579
RightShoulder 8.711926 27.659363 -37.934622
RightArm 54.951528 38.958907 24.114589
RightForeArm -21.710068 -0.000000 10.047561
RightHand -11.240203 -0.000000 -26.756535
RightHandThumb1 -24.326973 -0.000000 -32.862282
LeftUpLeg -121.918625 28.746705 -9.357759
LeftLeg 144.685150 -0.000000 -0.000000
LeftFoot -47.010480 20.003979 -11.000627
LeftToeBase 25.416975 -0.000000 -0.000000
RightUpLeg -120.715203 -19.172809 12.378110
RightLeg 142.547626 -0.000000 -0.000000
RightFoot -47.242734 -24.754143 13.937059
RightToeBase 24.942999 -0.000000 -0.000000
242
root 19.486693 9.448121 -12.800761 -177.969875 4.037704 -178.699524
Spine 76.161019 4.471244 0.244612
Head -14.843500 -0.476338 1.680003
LeftShoulder 18.043990 -60.060688 26.690606
LeftArm 53.163338 2.157713 -13.048761
LeftForeArm -3.609227 -0.000000 0.123693
LeftHand -5.142684 -0.000000 20.875075
LeftHandThumb1 -26.253704 0.000000 33.147579
RightShoulder 8.849415 27.737346 -38.088885
RightArm 54.874523 38.988609 24.044152
RightForeArm -21.767196 -0.000000 10.141850
RightHand -11.272101 -0.000000 -26.741996
RightHandThumb1 -24.326973 -0.000000 -32.862282
LeftUpLeg -121.826091 28.673742 -9.240052
LeftLeg 144.954244 -0.000000 -0.000000
LeftFoot -46.920775 20.069525 -11.038387
LeftToeBase 25.401926 -0.000000 -0.000000
RightUpLeg -120.668560 -19.306751 12.147177
RightLeg 142.829879 -0.000000 -0.000000
RightFoot -47.132870 -24.729381 13.918584
RightToeBase 24.939057 -0.000000 -0.000000
243
root 19.477214 9.365814 -12.818024 -178.290605 4.012873 -178.748068
Spine 76.507079 4.366815 0.255099
Head -14.465035 -0.276000 1.577544
LeftShoulder 18.247995 -60.059997 26.634606
LeftArm 53.076733 2.117318 -12.981094
LeftForeArm -3.274991 -0.000000 0.081661
LeftHand -5.307891 0.000000 20.949627
LeftHandThumb1 -26.253704 0.000000 33.147579
RightShoulder 9.001205 27.864354 -38.220208
RightArm 54.788584 38.895997 24.012104
RightForeArm -21.827614 -0.000000 10.270591
RightHand -11.320501 0.000000 -26.777345
RightHandThumb1 -24.326973 -0.000000 -32.862282
LeftUpLeg -121.830863 28.620364 -9.149539
LeftLeg 145.204167 -0.000000 -0.000000
LeftFoot -46.915548 20.114441 -11.115489
LeftToeBase 25.692561 -0.000000 -0.000000
RightUpLeg -120.694774 -19.351454 11.930185
RightLeg 143.083513 -0.000000 -0.000000
RightFoot -47.032150 -24.769304 13.879910
RightToeBase 25.027282 -0.000000 -0.000000
244
root 19.473163 9.301287 -12.838099 -178.650035 4.077855 -178.757023
Spine 76.960512 4.370378 0.346008
Head -14.277162 -0.312547 1.564937
LeftShoulder 18.485068 -60.237143 26.560139
LeftArm 52.969060 2.108903 -13.050146
LeftForeArm -3.132072 0.000000 0.011471
LeftHand -5.240773 -0.000000 20.749749
LeftHandThumb1 -26.253704 0.000000 33.147579
RightShoulder 9.065657 28.016322 -38.366620
RightArm 54.609830 38.746899 23.817279
RightForeArm -21.893434 0.000000 10.368756
RightHand -11.242550 -0.000000 -26.677084
RightHandThumb1 -24.326973 -0.000000 -32.862282
LeftUpLeg -121.746573 28.721417 -9.003361
LeftLeg 145.439931 -0.000000 -0.000000
LeftFoot -46.832396 20.128982 -11.146512
LeftToeBase 25.648343 -0.000000 -0.000000
RightUpLeg -120.578894 -19.301332 11.743549
RightLeg 143.282414 -0.000000 -0.000000
RightFoot -47.000719 -24.769527 13.953447
RightToeBase 24.957504 -0.000000 -0.000000
